<svg width="24" height="24" viewBox="0 0 24 24" fill="none" xmlns="http://www.w3.org/2000/svg">
<g clip-path="url(#clip0_3369_2046)">
<path d="M12.0299 1.58203C6.52915 1.58203 2.06055 6.05064 2.06055 11.5514C2.06055 11.8913 2.26195 12.1682 2.55146 12.3067C2.66475 12.3696 2.80322 12.4074 2.94168 12.4074H5.98788C6.44104 12.4074 6.80608 12.0423 6.80608 11.5892C6.80608 11.136 6.44104 10.771 5.98788 10.771H3.7347C4.1375 6.54155 7.6998 3.23101 12.0299 3.23101C16.6244 3.23101 20.3629 6.96953 20.3629 11.564C20.3629 15.3025 17.8958 18.5627 14.3209 19.5697C13.9936 18.9152 13.3265 18.462 12.546 18.462H10.595C9.49983 18.462 8.6187 19.3432 8.6187 20.4383C8.6187 21.5334 9.49983 22.4145 10.595 22.4145H12.546C13.3391 22.4145 14.0314 21.9362 14.3461 21.2565C14.3838 21.2565 14.4216 21.2439 14.4719 21.2313C18.9028 20.1236 21.9993 16.1459 21.9993 11.564C21.9867 6.05064 17.5181 1.58203 12.0299 1.58203ZM12.546 21.0047H10.595C10.2677 21.0047 10.0033 20.7404 10.0033 20.4131C10.0033 20.0858 10.2677 19.8215 10.595 19.8215H12.546C12.8733 19.8215 13.1377 20.0858 13.1377 20.4131C13.1251 20.7404 12.8607 21.0047 12.546 21.0047Z" fill="#111111"/>
<path d="M11.5642 16.4992C12.5964 16.4992 13.6412 16.109 14.4216 15.316C14.7363 15.0013 14.7363 14.4726 14.4216 14.1579C14.1069 13.8432 13.5783 13.8432 13.2636 14.1579C12.3195 15.102 10.7964 15.102 9.85233 14.1579C9.53764 13.8432 9.00896 13.8432 8.69427 14.1579C8.37958 14.4726 8.37958 15.0013 8.69427 15.316C9.48729 16.109 10.5321 16.4992 11.5642 16.4992Z" fill="#111111"/>
</g>
<defs>
<clipPath id="clip0_3369_2046">
<rect width="19.9388" height="20.8325" fill="white" transform="translate(2.06055 1.58203)"/>
</clipPath>
</defs>
</svg>
