<svg width="24" height="24" viewBox="0 0 24 24" fill="none" xmlns="http://www.w3.org/2000/svg">
<path opacity="0.4" d="M18.8088 9.021C18.3573 9.021 17.7592 9.011 17.0146 9.011C15.1987 9.011 13.7055 7.508 13.7055 5.675V2.459C13.7055 2.206 13.5036 2 13.253 2H7.96363C5.49517 2 3.5 4.026 3.5 6.509V17.284C3.5 19.889 5.59022 22 8.16958 22H16.0463C18.5058 22 20.5 19.987 20.5 17.502V9.471C20.5 9.217 20.299 9.012 20.0475 9.013C19.6247 9.016 19.1177 9.021 18.8088 9.021Z" fill="#FE642D"/>
<path opacity="0.4" d="M16.0847 2.56542C15.7857 2.25442 15.2637 2.46842 15.2637 2.89942V5.53642C15.2637 6.64242 16.1747 7.55242 17.2807 7.55242C17.9777 7.56042 18.9457 7.56242 19.7677 7.56042C20.1887 7.55942 20.4027 7.05642 20.1107 6.75242C19.0557 5.65542 17.1667 3.68942 16.0847 2.56542Z" fill="#FE642D"/>
<path fill-rule="evenodd" clip-rule="evenodd" d="M8.97398 11.3874H12.359C12.77 11.3874 13.104 11.0544 13.104 10.6434C13.104 10.2324 12.77 9.89844 12.359 9.89844H8.97398C8.56298 9.89844 8.22998 10.2324 8.22998 10.6434C8.22998 11.0544 8.56298 11.3874 8.97398 11.3874ZM8.97398 16.3835H14.418C14.829 16.3835 15.163 16.0505 15.163 15.6395C15.163 15.2285 14.829 14.8945 14.418 14.8945H8.97398C8.56298 14.8945 8.22998 15.2285 8.22998 15.6395C8.22998 16.0505 8.56298 16.3835 8.97398 16.3835Z" fill="#FE642D"/>
</svg>
